<svg width="1447" height="180" viewBox="0 0 1447 180" fill="none" xmlns="http://www.w3.org/2000/svg">
<g clip-path="url(#clip0_1_2)">
<path d="M357.107 143.707C306.592 180.169 77.5385 59.7356 -80 110.041V230H1968V130.163C1815.96 130.163 1835.47 56.2531 1835.47 56.2531C1835.47 56.2531 1765.95 63.9922 1687.93 130.163C1609.91 196.334 1353.85 49.2876 1322.84 78.31C1291.83 107.332 1317.84 226.13 1125.79 130.163C933.748 34.1959 850.727 228.452 747.202 73.2794C643.677 -81.8934 407.621 107.245 357.107 143.707Z" fill="white"/>
<path d="M1145.6 145.988C1185.63 173.88 1367.15 81.7517 1492 120.234V212H-131V135.627C-10.5135 135.627 -25.9707 79.0876 -25.9707 79.0876C-25.9707 79.0876 29.1201 85.0079 90.9487 135.627C152.777 186.246 355.702 73.7592 380.275 95.9606C404.848 118.162 384.238 209.04 536.431 135.627C688.625 62.2144 754.417 210.816 836.459 92.1124C918.5 -26.5912 1105.57 118.095 1145.6 145.988Z" fill="white" fill-opacity="0.5"/>
</g>
<defs>
<clipPath id="clip0_1_2">
<rect width="1447" height="180" fill="white"/>
</clipPath>
</defs>
</svg>
